<svg width="271" height="33" viewBox="0 0 271 33" fill="none" xmlns="http://www.w3.org/2000/svg">
<path d="M148.807 26.3145H144.457V3.89185H148.807V26.3145Z" fill="white"/>
<path d="M161.479 26.3145C161.28 25.9352 161.135 25.4632 161.044 24.8985C159.994 26.0364 158.629 26.6074 156.949 26.6074C155.359 26.6074 154.04 26.1607 152.996 25.2651C151.95 24.3696 151.428 23.2401 151.428 21.8789C151.428 20.2058 152.065 18.9204 153.341 18.0248C154.616 17.1293 156.459 16.6762 158.87 16.6678H160.864V15.7617C160.864 15.0326 160.672 14.4468 160.286 14.0106C159.901 13.5723 159.294 13.3532 158.463 13.3532C157.733 13.3532 157.159 13.5239 156.745 13.8652C156.329 14.2066 156.124 14.6723 156.124 15.2665H151.788C151.788 14.352 152.078 13.5049 152.658 12.7273C153.239 11.9498 154.06 11.3387 155.119 10.8962C156.178 10.4537 157.369 10.2324 158.69 10.2324C160.691 10.2324 162.279 10.7213 163.455 11.699C164.63 12.6768 165.217 14.0528 165.217 15.8228V22.6691C165.228 24.1673 165.443 25.301 165.863 26.0701V26.3187H161.482L161.479 26.3145ZM157.893 23.3813C158.532 23.3813 159.123 23.2422 159.662 22.9662C160.202 22.688 160.602 22.3172 160.862 21.8494V19.1332H159.242C157.072 19.1332 155.916 19.8623 155.777 21.3226L155.762 21.5712C155.762 22.0959 155.952 22.53 156.331 22.8714C156.713 23.2127 157.232 23.3834 157.893 23.3834V23.3813Z" fill="white"/>
<path d="M182.868 18.5642C182.868 21.095 182.313 23.0673 181.202 24.4833C180.091 25.8994 178.541 26.6074 176.55 26.6074C174.79 26.6074 173.384 25.9499 172.334 24.6372L172.139 26.3166H168.238V3.89185H172.574V11.935C173.575 10.7971 174.889 10.2261 176.52 10.2261C178.499 10.2261 180.052 10.9341 181.178 12.3501C182.305 13.7662 182.866 15.7596 182.866 18.3282V18.5621L182.868 18.5642ZM178.532 18.2587C178.532 16.6635 178.272 15.4983 177.752 14.7629C177.233 14.0274 176.457 13.6608 175.426 13.6608C174.047 13.6608 173.096 14.2108 172.576 15.3107V21.5438C173.107 22.6522 174.066 23.2085 175.457 23.2085C176.847 23.2085 177.776 22.5363 178.218 21.194C178.428 20.5513 178.532 19.5736 178.532 18.2587V18.2587Z" fill="white"/>
<path d="M26.1035 11.207V13.6133H17.7637V11.207H26.1035ZM20.1699 7.58398H23.4648V21.9121C23.4648 22.3678 23.5286 22.7188 23.6562 22.9648C23.793 23.2018 23.9798 23.3613 24.2168 23.4434C24.4538 23.5254 24.7318 23.5664 25.0508 23.5664C25.2786 23.5664 25.4974 23.5527 25.707 23.5254C25.9167 23.498 26.0853 23.4707 26.2129 23.4434L26.2266 25.959C25.9531 26.041 25.6341 26.1139 25.2695 26.1777C24.9141 26.2415 24.5039 26.2734 24.0391 26.2734C23.2826 26.2734 22.6126 26.1413 22.0293 25.877C21.446 25.6035 20.9902 25.1615 20.6621 24.5508C20.334 23.9401 20.1699 23.1289 20.1699 22.1172V7.58398ZM32.1738 11.207V26H28.8652V11.207H32.1738ZM28.6465 7.32422C28.6465 6.82292 28.8105 6.4082 29.1387 6.08008C29.4759 5.74284 29.9408 5.57422 30.5332 5.57422C31.1165 5.57422 31.5768 5.74284 31.9141 6.08008C32.2513 6.4082 32.4199 6.82292 32.4199 7.32422C32.4199 7.81641 32.2513 8.22656 31.9141 8.55469C31.5768 8.88281 31.1165 9.04688 30.5332 9.04688C29.9408 9.04688 29.4759 8.88281 29.1387 8.55469C28.8105 8.22656 28.6465 7.81641 28.6465 7.32422ZM39.1055 5V26H35.7969V5H39.1055ZM48.293 11.207L41.8535 18.3438L38.3262 21.9531L37.4648 19.1641L40.1309 15.8691L44.3145 11.207H48.293ZM45.0254 26L40.2266 19.0547L42.3047 16.7441L48.8398 26H45.0254ZM49.7559 18.7676V18.4531C49.7559 17.3867 49.9108 16.3978 50.2207 15.4863C50.5306 14.5658 50.9772 13.7682 51.5605 13.0938C52.153 12.4102 52.873 11.8815 53.7207 11.5078C54.5775 11.125 55.5436 10.9336 56.6191 10.9336C57.7038 10.9336 58.6699 11.125 59.5176 11.5078C60.3743 11.8815 61.099 12.4102 61.6914 13.0938C62.2839 13.7682 62.735 14.5658 63.0449 15.4863C63.3548 16.3978 63.5098 17.3867 63.5098 18.4531V18.7676C63.5098 19.834 63.3548 20.8229 63.0449 21.7344C62.735 22.6458 62.2839 23.4434 61.6914 24.127C61.099 24.8014 60.3789 25.3301 59.5312 25.7129C58.6836 26.0866 57.722 26.2734 56.6465 26.2734C55.5618 26.2734 54.5911 26.0866 53.7344 25.7129C52.8867 25.3301 52.1667 24.8014 51.5742 24.127C50.9818 23.4434 50.5306 22.6458 50.2207 21.7344C49.9108 20.8229 49.7559 19.834 49.7559 18.7676ZM53.0508 18.4531V18.7676C53.0508 19.4329 53.1191 20.0618 53.2559 20.6543C53.3926 21.2467 53.6068 21.7663 53.8984 22.2129C54.1901 22.6595 54.5638 23.0104 55.0195 23.2656C55.4753 23.5208 56.0176 23.6484 56.6465 23.6484C57.2572 23.6484 57.7858 23.5208 58.2324 23.2656C58.6882 23.0104 59.0618 22.6595 59.3535 22.2129C59.6452 21.7663 59.8594 21.2467 59.9961 20.6543C60.1419 20.0618 60.2148 19.4329 60.2148 18.7676V18.4531C60.2148 17.7969 60.1419 17.1771 59.9961 16.5938C59.8594 16.0013 59.6406 15.4772 59.3398 15.0215C59.0482 14.5658 58.6745 14.2103 58.2188 13.9551C57.7721 13.6908 57.2389 13.5586 56.6191 13.5586C55.9993 13.5586 55.4616 13.6908 55.0059 13.9551C54.5592 14.2103 54.1901 14.5658 53.8984 15.0215C53.6068 15.4772 53.3926 16.0013 53.2559 16.5938C53.1191 17.1771 53.0508 17.7969 53.0508 18.4531ZM80.0254 11.207V13.6133H71.6855V11.207H80.0254ZM74.0918 7.58398H77.3867V21.9121C77.3867 22.3678 77.4505 22.7188 77.5781 22.9648C77.7148 23.2018 77.9017 23.3613 78.1387 23.4434C78.3757 23.5254 78.6536 23.5664 78.9727 23.5664C79.2005 23.5664 79.4193 23.5527 79.6289 23.5254C79.8385 23.498 80.0072 23.4707 80.1348 23.4434L80.1484 25.959C79.875 26.041 79.556 26.1139 79.1914 26.1777C78.8359 26.2415 78.4258 26.2734 77.9609 26.2734C77.2044 26.2734 76.5345 26.1413 75.9512 25.877C75.3678 25.6035 74.9121 25.1615 74.584 24.5508C74.2559 23.9401 74.0918 23.1289 74.0918 22.1172V7.58398ZM89.0898 26.2734C87.9961 26.2734 87.0072 26.0957 86.123 25.7402C85.248 25.3757 84.5007 24.8698 83.8809 24.2227C83.2702 23.5755 82.8008 22.8145 82.4727 21.9395C82.1445 21.0645 81.9805 20.1211 81.9805 19.1094V18.5625C81.9805 17.4049 82.1491 16.3568 82.4863 15.418C82.8236 14.4792 83.293 13.6771 83.8945 13.0117C84.4961 12.3372 85.207 11.8223 86.0273 11.4668C86.8477 11.1113 87.7363 10.9336 88.6934 10.9336C89.7507 10.9336 90.6758 11.1113 91.4688 11.4668C92.2617 11.8223 92.918 12.3236 93.4375 12.9707C93.9661 13.6087 94.3581 14.3698 94.6133 15.2539C94.8776 16.138 95.0098 17.1133 95.0098 18.1797V19.5879H83.5801V17.2227H91.7559V16.9629C91.7376 16.3704 91.6191 15.8145 91.4004 15.2949C91.1908 14.7754 90.8672 14.3561 90.4297 14.0371C89.9922 13.7181 89.4089 13.5586 88.6797 13.5586C88.1328 13.5586 87.6452 13.6771 87.2168 13.9141C86.7975 14.1419 86.4466 14.4746 86.1641 14.9121C85.8815 15.3496 85.6628 15.8783 85.5078 16.498C85.362 17.1087 85.2891 17.7969 85.2891 18.5625V19.1094C85.2891 19.7565 85.3757 20.3581 85.5488 20.9141C85.7311 21.4609 85.9954 21.9395 86.3418 22.3496C86.6882 22.7598 87.1074 23.0833 87.5996 23.3203C88.0918 23.5482 88.6523 23.6621 89.2812 23.6621C90.0742 23.6621 90.7806 23.5026 91.4004 23.1836C92.0202 22.8646 92.5579 22.4134 93.0137 21.8301L94.75 23.5117C94.431 23.9766 94.0163 24.4232 93.5059 24.8516C92.9954 25.2708 92.3711 25.6126 91.6328 25.877C90.9036 26.1413 90.056 26.2734 89.0898 26.2734ZM100.902 5V26H97.5938V5H100.902ZM110.09 11.207L103.65 18.3438L100.123 21.9531L99.2617 19.1641L101.928 15.8691L106.111 11.207H110.09ZM106.822 26L102.023 19.0547L104.102 16.7441L110.637 26H106.822ZM111.553 18.7676V18.4531C111.553 17.3867 111.708 16.3978 112.018 15.4863C112.327 14.5658 112.774 13.7682 113.357 13.0938C113.95 12.4102 114.67 11.8815 115.518 11.5078C116.374 11.125 117.34 10.9336 118.416 10.9336C119.501 10.9336 120.467 11.125 121.314 11.5078C122.171 11.8815 122.896 12.4102 123.488 13.0938C124.081 13.7682 124.532 14.5658 124.842 15.4863C125.152 16.3978 125.307 17.3867 125.307 18.4531V18.7676C125.307 19.834 125.152 20.8229 124.842 21.7344C124.532 22.6458 124.081 23.4434 123.488 24.127C122.896 24.8014 122.176 25.3301 121.328 25.7129C120.48 26.0866 119.519 26.2734 118.443 26.2734C117.359 26.2734 116.388 26.0866 115.531 25.7129C114.684 25.3301 113.964 24.8014 113.371 24.127C112.779 23.4434 112.327 22.6458 112.018 21.7344C111.708 20.8229 111.553 19.834 111.553 18.7676ZM114.848 18.4531V18.7676C114.848 19.4329 114.916 20.0618 115.053 20.6543C115.189 21.2467 115.404 21.7663 115.695 22.2129C115.987 22.6595 116.361 23.0104 116.816 23.2656C117.272 23.5208 117.814 23.6484 118.443 23.6484C119.054 23.6484 119.583 23.5208 120.029 23.2656C120.485 23.0104 120.859 22.6595 121.15 22.2129C121.442 21.7663 121.656 21.2467 121.793 20.6543C121.939 20.0618 122.012 19.4329 122.012 18.7676V18.4531C122.012 17.7969 121.939 17.1771 121.793 16.5938C121.656 16.0013 121.438 15.4772 121.137 15.0215C120.845 14.5658 120.471 14.2103 120.016 13.9551C119.569 13.6908 119.036 13.5586 118.416 13.5586C117.796 13.5586 117.258 13.6908 116.803 13.9551C116.356 14.2103 115.987 14.5658 115.695 15.0215C115.404 15.4772 115.189 16.0013 115.053 16.5938C114.916 17.1771 114.848 17.7969 114.848 18.4531Z" fill="white"/>
<rect x="8.5" y="0.5" width="127" height="31.1081" rx="3.5" stroke="#F0F2F5"/>
<path d="M207.379 17.3594H205.376V21.3356H203.579V10.9965H207.215C208.408 10.9965 209.329 11.265 209.978 11.7999C210.628 12.3349 210.951 13.1102 210.951 14.1238C210.951 14.8146 210.784 15.3951 210.45 15.8607C210.117 16.3285 209.651 16.6858 209.056 16.937L211.377 21.2425V21.3356H209.452L207.377 17.3594H207.379ZM205.376 15.9105H207.224C207.83 15.9105 208.302 15.7567 208.644 15.4514C208.986 15.146 209.155 14.728 209.155 14.1974C209.155 13.6668 208.997 13.2142 208.683 12.911C208.369 12.6078 207.899 12.4518 207.273 12.4432H205.376V15.9083V15.9105Z" fill="#C4C4CC"/>
<path d="M220.155 16.7205H215.908V19.9019H220.872V21.3356H214.111V10.9965H220.822V12.4453H215.908V15.2998H220.155V16.7205V16.7205Z" fill="#C4C4CC"/>
<path d="M229.578 18.9295H225.572L224.734 21.3378H222.867L226.774 10.9965H228.385L232.298 21.3378H230.423L229.578 18.9295V18.9295ZM226.076 17.4806H229.074L227.575 13.1903L226.076 17.4806V17.4806Z" fill="#C4C4CC"/>
<path d="M242.665 17.9702C242.562 19.0725 242.154 19.9345 241.444 20.5517C240.734 21.169 239.789 21.4787 238.611 21.4787C237.788 21.4787 237.063 21.2837 236.435 20.8917C235.807 20.5019 235.324 19.9453 234.981 19.2263C234.641 18.5073 234.464 17.6713 234.449 16.7184V15.7525C234.449 14.7779 234.622 13.9181 234.966 13.1753C235.311 12.4324 235.809 11.8585 236.454 11.4557C237.1 11.0529 237.847 10.8514 238.696 10.8514C239.837 10.8514 240.755 11.1611 241.451 11.7784C242.146 12.3956 242.551 13.2706 242.665 14.4032H240.877C240.792 13.6604 240.576 13.1233 240.227 12.7941C239.878 12.4649 239.369 12.3003 238.696 12.3003C237.914 12.3003 237.314 12.5862 236.896 13.1579C236.476 13.7297 236.264 14.5657 236.253 15.6702V16.5863C236.253 17.7038 236.452 18.5571 236.853 19.1462C237.253 19.7331 237.838 20.0276 238.611 20.0276C239.317 20.0276 239.848 19.8695 240.203 19.5512C240.558 19.2328 240.783 18.7065 240.879 17.968H242.668L242.665 17.9702Z" fill="#C4C4CC"/>
<path d="M252.992 12.4453H249.767V21.3378H247.985V12.4453H244.788V10.9965H252.992V12.4453Z" fill="#C4C4CC"/>
<path d="M258.502 10.9965H260.291V18.2473C260.291 19.237 259.981 20.0232 259.364 20.6058C258.746 21.1884 257.93 21.4786 256.916 21.4786C255.838 21.4786 255.004 21.2057 254.417 20.6621C253.83 20.1185 253.536 19.3605 253.536 18.3903H255.325C255.325 18.9403 255.461 19.3518 255.734 19.629C256.007 19.9063 256.401 20.0449 256.916 20.0449C257.399 20.0449 257.785 19.8846 258.071 19.5662C258.357 19.2457 258.499 18.8061 258.499 18.2408V10.9965H258.502Z" fill="#C4C4CC"/>
<path d="M269.202 18.674C269.202 18.2192 269.042 17.8683 268.724 17.6236C268.405 17.3789 267.827 17.1298 266.993 16.8786C266.159 16.6274 265.497 16.348 265.005 16.0405C264.063 15.4492 263.591 14.6761 263.591 13.7253C263.591 12.8915 263.931 12.205 264.611 11.6657C265.291 11.1264 266.172 10.8557 267.257 10.8557C267.976 10.8557 268.617 10.9878 269.183 11.2542C269.746 11.5184 270.19 11.8974 270.51 12.3869C270.833 12.8763 270.993 13.4199 270.993 14.0177H269.204C269.204 13.4784 269.035 13.0561 268.698 12.7507C268.36 12.4454 267.875 12.2916 267.244 12.2916C266.657 12.2916 266.201 12.4172 265.878 12.6684C265.553 12.9197 265.391 13.2705 265.391 13.7188C265.391 14.0978 265.566 14.414 265.917 14.6674C266.268 14.9208 266.844 15.1677 267.649 15.4059C268.455 15.6441 269.1 15.917 269.588 16.2224C270.075 16.5278 270.432 16.8786 270.66 17.2728C270.887 17.6691 271 18.1304 271 18.661C271 19.523 270.671 20.2073 270.01 20.7163C269.35 21.2252 268.453 21.4808 267.322 21.4808C266.573 21.4808 265.887 21.3422 265.258 21.0649C264.63 20.7877 264.143 20.4066 263.794 19.9171C263.446 19.4298 263.272 18.8602 263.272 18.2127H265.07C265.07 18.7996 265.265 19.2544 265.653 19.5771C266.04 19.8998 266.597 20.0601 267.322 20.0601C267.948 20.0601 268.416 19.9344 268.732 19.681C269.046 19.4277 269.204 19.092 269.204 18.6762L269.202 18.674Z" fill="#C4C4CC"/>
<path d="M194.883 31.09H190.532V2.50024H194.883V31.09Z" fill="#00B37E"/>
</svg>
