<svg width="191" height="31" viewBox="0 0 191 31" fill="none" xmlns="http://www.w3.org/2000/svg">
<path d="M136.851 28.8034H133.5V1.21368H136.851V28.8034Z" fill="#00B37E" stroke="#F0F2F5"/>
<path d="M157.324 7V25H155.145V7H157.324ZM168.281 22.832V16.3047C168.281 15.8047 168.18 15.3711 167.977 15.0039C167.781 14.6289 167.484 14.3398 167.086 14.1367C166.688 13.9336 166.195 13.832 165.609 13.832C165.062 13.832 164.582 13.9258 164.168 14.1133C163.762 14.3008 163.441 14.5469 163.207 14.8516C162.98 15.1562 162.867 15.4844 162.867 15.8359H160.699C160.699 15.3828 160.816 14.9336 161.051 14.4883C161.285 14.043 161.621 13.6406 162.059 13.2812C162.504 12.9141 163.035 12.625 163.652 12.4141C164.277 12.1953 164.973 12.0859 165.738 12.0859C166.66 12.0859 167.473 12.2422 168.176 12.5547C168.887 12.8672 169.441 13.3398 169.84 13.9727C170.246 14.5977 170.449 15.3828 170.449 16.3281V22.2344C170.449 22.6562 170.484 23.1055 170.555 23.582C170.633 24.0586 170.746 24.4688 170.895 24.8125V25H168.633C168.523 24.75 168.438 24.418 168.375 24.0039C168.312 23.582 168.281 23.1914 168.281 22.832ZM168.656 17.3125L168.68 18.8359H166.488C165.871 18.8359 165.32 18.8867 164.836 18.9883C164.352 19.082 163.945 19.2266 163.617 19.4219C163.289 19.6172 163.039 19.8633 162.867 20.1602C162.695 20.4492 162.609 20.7891 162.609 21.1797C162.609 21.5781 162.699 21.9414 162.879 22.2695C163.059 22.5977 163.328 22.8594 163.688 23.0547C164.055 23.2422 164.504 23.3359 165.035 23.3359C165.699 23.3359 166.285 23.1953 166.793 22.9141C167.301 22.6328 167.703 22.2891 168 21.8828C168.305 21.4766 168.469 21.082 168.492 20.6992L169.418 21.7422C169.363 22.0703 169.215 22.4336 168.973 22.832C168.73 23.2305 168.406 23.6133 168 23.9805C167.602 24.3398 167.125 24.6406 166.57 24.8828C166.023 25.1172 165.406 25.2344 164.719 25.2344C163.859 25.2344 163.105 25.0664 162.457 24.7305C161.816 24.3945 161.316 23.9453 160.957 23.3828C160.605 22.8125 160.43 22.1758 160.43 21.4727C160.43 20.793 160.562 20.1953 160.828 19.6797C161.094 19.1562 161.477 18.7227 161.977 18.3789C162.477 18.0273 163.078 17.7617 163.781 17.582C164.484 17.4023 165.27 17.3125 166.137 17.3125H168.656ZM173.848 7H176.027V22.5391L175.84 25H173.848V7ZM184.594 18.5547V18.8008C184.594 19.7227 184.484 20.5781 184.266 21.3672C184.047 22.1484 183.727 22.8281 183.305 23.4062C182.883 23.9844 182.367 24.4336 181.758 24.7539C181.148 25.0742 180.449 25.2344 179.66 25.2344C178.855 25.2344 178.148 25.0977 177.539 24.8242C176.938 24.543 176.43 24.1406 176.016 23.6172C175.602 23.0938 175.27 22.4609 175.02 21.7188C174.777 20.9766 174.609 20.1406 174.516 19.2109V18.1328C174.609 17.1953 174.777 16.3555 175.02 15.6133C175.27 14.8711 175.602 14.2383 176.016 13.7148C176.43 13.1836 176.938 12.7812 177.539 12.5078C178.141 12.2266 178.84 12.0859 179.637 12.0859C180.434 12.0859 181.141 12.2422 181.758 12.5547C182.375 12.8594 182.891 13.2969 183.305 13.8672C183.727 14.4375 184.047 15.1211 184.266 15.918C184.484 16.707 184.594 17.5859 184.594 18.5547ZM182.414 18.8008V18.5547C182.414 17.9219 182.355 17.3281 182.238 16.7734C182.121 16.2109 181.934 15.7188 181.676 15.2969C181.418 14.8672 181.078 14.5312 180.656 14.2891C180.234 14.0391 179.715 13.9141 179.098 13.9141C178.551 13.9141 178.074 14.0078 177.668 14.1953C177.27 14.3828 176.93 14.6367 176.648 14.957C176.367 15.2695 176.137 15.6289 175.957 16.0352C175.785 16.4336 175.656 16.8477 175.57 17.2773V20.1016C175.695 20.6484 175.898 21.1758 176.18 21.6836C176.469 22.1836 176.852 22.5938 177.328 22.9141C177.812 23.2344 178.41 23.3945 179.121 23.3945C179.707 23.3945 180.207 23.2773 180.621 23.043C181.043 22.8008 181.383 22.4688 181.641 22.0469C181.906 21.625 182.102 21.1367 182.227 20.582C182.352 20.0273 182.414 19.4336 182.414 18.8008Z" fill="#C4C4CC"/>
<path d="M13.6201 9.86407V12.6473H4.53809V9.86407H13.6201ZM6.96973 5.96759H10.8516V21.1434C10.8516 21.6121 10.915 21.9734 11.042 22.2274C11.1689 22.4813 11.3594 22.6522 11.6133 22.7401C11.8672 22.8279 12.1699 22.8719 12.5215 22.8719C12.7754 22.8719 13.0098 22.8572 13.2246 22.8279C13.4395 22.7986 13.6201 22.7693 13.7666 22.7401L13.7812 25.6404C13.459 25.7479 13.0928 25.8358 12.6826 25.9041C12.2822 25.9725 11.8281 26.0067 11.3203 26.0067C10.4512 26.0067 9.68945 25.8602 9.03516 25.5672C8.38086 25.2645 7.87305 24.7811 7.51172 24.117C7.15039 23.4432 6.96973 22.5545 6.96973 21.451V5.96759ZM20.2998 9.86407V25.7137H16.418V9.86407H20.2998ZM16.1543 5.71857C16.1543 5.1424 16.3496 4.66388 16.7402 4.28302C17.1406 3.90216 17.6777 3.71173 18.3516 3.71173C19.0254 3.71173 19.5576 3.90216 19.9482 4.28302C20.3486 4.66388 20.5488 5.1424 20.5488 5.71857C20.5488 6.28497 20.3486 6.75861 19.9482 7.13947C19.5576 7.52032 19.0254 7.71075 18.3516 7.71075C17.6777 7.71075 17.1406 7.52032 16.7402 7.13947C16.3496 6.75861 16.1543 6.28497 16.1543 5.71857ZM27.8584 3.19904V25.7137H23.9912V3.19904H27.8584ZM37.79 9.86407L30.8906 17.6131L27.1553 21.407L25.9248 18.4041L28.8105 14.7713L33.1172 9.86407H37.79ZM33.835 25.7137L28.9277 18.3309L31.5059 15.826L38.3174 25.7137H33.835ZM39.1523 17.95V17.6424C39.1523 16.4803 39.3184 15.4109 39.6504 14.4344C39.9824 13.4481 40.4658 12.5936 41.1006 11.8709C41.7354 11.1483 42.5117 10.5867 43.4297 10.1863C44.3477 9.77618 45.3926 9.57111 46.5645 9.57111C47.7559 9.57111 48.8105 9.77618 49.7285 10.1863C50.6562 10.5867 51.4375 11.1483 52.0723 11.8709C52.707 12.5936 53.1904 13.4481 53.5225 14.4344C53.8545 15.4109 54.0205 16.4803 54.0205 17.6424V17.95C54.0205 19.1024 53.8545 20.1717 53.5225 21.158C53.1904 22.1346 52.707 22.9891 52.0723 23.7215C51.4375 24.4442 50.6611 25.0057 49.7432 25.4061C48.8252 25.8065 47.7754 26.0067 46.5938 26.0067C45.4219 26.0067 44.3721 25.8065 43.4443 25.4061C42.5166 25.0057 41.7354 24.4442 41.1006 23.7215C40.4658 22.9891 39.9824 22.1346 39.6504 21.158C39.3184 20.1717 39.1523 19.1024 39.1523 17.95ZM43.0195 17.6424V17.95C43.0195 18.6434 43.0879 19.2928 43.2246 19.8983C43.3613 20.5037 43.5713 21.0359 43.8545 21.4949C44.1377 21.9539 44.5039 22.3152 44.9531 22.5789C45.4121 22.8328 45.959 22.9598 46.5938 22.9598C47.2188 22.9598 47.7559 22.8328 48.2051 22.5789C48.6543 22.3152 49.0205 21.9539 49.3037 21.4949C49.5967 21.0359 49.8115 20.5037 49.9482 19.8983C50.085 19.2928 50.1533 18.6434 50.1533 17.95V17.6424C50.1533 16.9588 50.085 16.3192 49.9482 15.7234C49.8115 15.118 49.5967 14.5858 49.3037 14.1268C49.0205 13.658 48.6494 13.2918 48.1904 13.0281C47.7412 12.7547 47.1992 12.618 46.5645 12.618C45.9395 12.618 45.4023 12.7547 44.9531 13.0281C44.5039 13.2918 44.1377 13.658 43.8545 14.1268C43.5713 14.5858 43.3613 15.118 43.2246 15.7234C43.0879 16.3192 43.0195 16.9588 43.0195 17.6424ZM71.8037 9.86407V12.6473H62.7217V9.86407H71.8037ZM65.1533 5.96759H69.0352V21.1434C69.0352 21.6121 69.0986 21.9734 69.2256 22.2274C69.3525 22.4813 69.543 22.6522 69.7969 22.7401C70.0508 22.8279 70.3535 22.8719 70.7051 22.8719C70.959 22.8719 71.1934 22.8572 71.4082 22.8279C71.623 22.7986 71.8037 22.7693 71.9502 22.7401L71.9648 25.6404C71.6426 25.7479 71.2764 25.8358 70.8662 25.9041C70.4658 25.9725 70.0117 26.0067 69.5039 26.0067C68.6348 26.0067 67.873 25.8602 67.2188 25.5672C66.5645 25.2645 66.0566 24.7811 65.6953 24.117C65.334 23.4432 65.1533 22.5545 65.1533 21.451V5.96759ZM81.501 26.0067C80.2998 26.0067 79.2207 25.8113 78.2637 25.4207C77.3066 25.0301 76.4912 24.4881 75.8174 23.7947C75.1533 23.0916 74.6406 22.2762 74.2793 21.3484C73.9277 20.4109 73.752 19.4051 73.752 18.3309V17.7449C73.752 16.5242 73.9277 15.4158 74.2793 14.4197C74.6309 13.4139 75.1289 12.5496 75.7734 11.827C76.418 11.1043 77.1895 10.5477 78.0879 10.157C78.9863 9.76642 79.9775 9.57111 81.0615 9.57111C82.1846 9.57111 83.1758 9.76154 84.0352 10.1424C84.8945 10.5135 85.6123 11.0408 86.1885 11.7244C86.7646 12.408 87.1992 13.2283 87.4922 14.1854C87.7852 15.1326 87.9316 16.1824 87.9316 17.3348V18.9608H75.5098V16.2947H84.123V16.0018C84.1035 15.3865 83.9863 14.825 83.7715 14.3172C83.5566 13.7996 83.2246 13.3895 82.7754 13.0867C82.3262 12.7742 81.7451 12.618 81.0322 12.618C80.4561 12.618 79.9531 12.7449 79.5234 12.9988C79.1035 13.243 78.752 13.5945 78.4688 14.0535C78.1953 14.5027 77.9902 15.0399 77.8535 15.6649C77.7168 16.2899 77.6484 16.9832 77.6484 17.7449V18.3309C77.6484 18.9949 77.7363 19.6102 77.9121 20.1766C78.0977 20.743 78.3662 21.2361 78.7178 21.6561C79.0791 22.0662 79.5088 22.3885 80.0068 22.6229C80.5146 22.8475 81.0908 22.9598 81.7354 22.9598C82.5459 22.9598 83.2783 22.8035 83.9326 22.491C84.5967 22.1688 85.1729 21.6951 85.6611 21.0701L87.6094 23.0916C87.2773 23.5799 86.8281 24.0486 86.2617 24.4979C85.7051 24.9471 85.0312 25.3133 84.2402 25.5965C83.4492 25.8699 82.5361 26.0067 81.501 26.0067ZM94.3916 3.19904V25.7137H90.5244V3.19904H94.3916ZM104.323 9.86407L97.4238 17.6131L93.6885 21.407L92.458 18.4041L95.3438 14.7713L99.6504 9.86407H104.323ZM100.368 25.7137L95.4609 18.3309L98.0391 15.826L104.851 25.7137H100.368ZM105.686 17.95V17.6424C105.686 16.4803 105.852 15.4109 106.184 14.4344C106.516 13.4481 106.999 12.5936 107.634 11.8709C108.269 11.1483 109.045 10.5867 109.963 10.1863C110.881 9.77618 111.926 9.57111 113.098 9.57111C114.289 9.57111 115.344 9.77618 116.262 10.1863C117.189 10.5867 117.971 11.1483 118.605 11.8709C119.24 12.5936 119.724 13.4481 120.056 14.4344C120.388 15.4109 120.554 16.4803 120.554 17.6424V17.95C120.554 19.1024 120.388 20.1717 120.056 21.158C119.724 22.1346 119.24 22.9891 118.605 23.7215C117.971 24.4442 117.194 25.0057 116.276 25.4061C115.358 25.8065 114.309 26.0067 113.127 26.0067C111.955 26.0067 110.905 25.8065 109.978 25.4061C109.05 25.0057 108.269 24.4442 107.634 23.7215C106.999 22.9891 106.516 22.1346 106.184 21.158C105.852 20.1717 105.686 19.1024 105.686 17.95ZM109.553 17.6424V17.95C109.553 18.6434 109.621 19.2928 109.758 19.8983C109.895 20.5037 110.104 21.0359 110.388 21.4949C110.671 21.9539 111.037 22.3152 111.486 22.5789C111.945 22.8328 112.492 22.9598 113.127 22.9598C113.752 22.9598 114.289 22.8328 114.738 22.5789C115.188 22.3152 115.554 21.9539 115.837 21.4949C116.13 21.0359 116.345 20.5037 116.481 19.8983C116.618 19.2928 116.687 18.6434 116.687 17.95V17.6424C116.687 16.9588 116.618 16.3192 116.481 15.7234C116.345 15.118 116.13 14.5858 115.837 14.1268C115.554 13.658 115.183 13.2918 114.724 13.0281C114.274 12.7547 113.732 12.618 113.098 12.618C112.473 12.618 111.936 12.7547 111.486 13.0281C111.037 13.2918 110.671 13.658 110.388 14.1268C110.104 14.5858 109.895 15.118 109.758 15.7234C109.621 16.3192 109.553 16.9588 109.553 17.6424Z" fill="#81D8F7"/>
</svg>
